<svg width="60" height="60" viewBox="0 0 60 60" fill="none" xmlns="http://www.w3.org/2000/svg">
<g clip-path="url(#clip0_9_89)">
<path d="M17.58 0.210003C14.39 0.360003 12.21 0.870003 10.3 1.62C8.33 2.39 6.66 3.42 4.99 5.09C3.32 6.76 2.3 8.44 1.54 10.41C0.8 12.32 0.3 14.5 0.16 17.7C0.0200001 20.89 -0.00999988 21.91 1.17696e-07 30.06C0.0200001 38.21 0.0500001 39.23 0.2 42.43C0.35 45.62 0.86 47.8 1.61 49.71C2.38 51.68 3.41 53.35 5.08 55.02C6.75 56.68 8.43 57.71 10.4 58.47C12.31 59.21 14.49 59.71 17.68 59.85C20.88 59.99 21.9 60.02 30.05 60.01C38.2 59.99 39.22 59.96 42.42 59.81C45.61 59.66 47.79 59.15 49.7 58.4C51.67 57.63 53.34 56.6 55.01 54.93C56.67 53.26 57.7 51.58 58.46 49.61C59.2 47.7 59.7 45.52 59.84 42.33C59.98 39.13 60.01 38.11 60 29.96C59.98 21.81 59.95 20.79 59.8 17.59C59.65 14.4 59.14 12.22 58.39 10.31C57.62 8.34 56.59 6.67 54.92 5C53.25 3.34 51.57 2.31 49.6 1.55C47.69 0.810003 45.51 0.310003 42.32 0.170003C39.11 0.0200028 38.09 -0.00999716 29.94 2.84426e-06C21.79 0.0200028 20.77 0.0500028 17.57 0.200003M17.93 54.44C15.01 54.31 13.42 53.83 12.36 53.42C10.96 52.88 9.96 52.23 8.91 51.18C7.86 50.13 7.21 49.13 6.66 47.74C6.25 46.68 5.75 45.1 5.62 42.17C5.47 39.01 5.44 38.06 5.42 30.05C5.4 22.04 5.43 21.09 5.57 17.93C5.7 15.01 6.18 13.42 6.59 12.36C7.13 10.96 7.78 9.96 8.83 8.91C9.88 7.86 10.88 7.21 12.28 6.66C13.34 6.25 14.92 5.76 17.85 5.62C21.01 5.47 21.96 5.44 29.97 5.42C37.98 5.4 38.93 5.43 42.09 5.57C45.01 5.7 46.6 6.18 47.66 6.59C49.06 7.13 50.06 7.78 51.11 8.83C52.16 9.88 52.81 10.87 53.36 12.28C53.77 13.33 54.26 14.92 54.4 17.85C54.55 21.01 54.58 21.96 54.6 29.97C54.62 37.98 54.59 38.93 54.45 42.09C54.32 45.01 53.84 46.6 53.43 47.66C52.89 49.06 52.24 50.06 51.19 51.11C50.14 52.16 49.14 52.81 47.74 53.36C46.68 53.77 45.1 54.26 42.17 54.4C39.01 54.55 38.06 54.58 30.05 54.6C22.04 54.62 21.09 54.59 17.93 54.45M42.38 13.96C42.38 15.95 44 17.56 45.99 17.55C47.98 17.55 49.59 15.93 49.58 13.94C49.58 11.95 47.96 10.34 45.97 10.35C43.98 10.35 42.37 11.97 42.38 13.96ZM14.6 30.03C14.62 38.54 21.53 45.42 30.03 45.4C38.54 45.38 45.42 38.48 45.41 29.97C45.39 21.46 38.48 14.58 29.97 14.6C21.46 14.62 14.58 21.53 14.6 30.03ZM20 30.02C20 24.5 24.46 20.01 29.98 20C35.5 19.99 39.99 24.46 40 29.98C40.01 35.5 35.54 39.99 30.02 40C24.5 40.01 20.01 35.54 20 30.02Z" fill="white"/>
</g>
<defs>
<clipPath id="clip0_9_89">
<rect width="60" height="60" fill="white"/>
</clipPath>
</defs>
</svg>
