<svg width="80" height="80" viewBox="0 0 80 80" fill="none" xmlns="http://www.w3.org/2000/svg">
<g clip-path="url(#clip0_5_2)">
<path d="M67.9004 63.1602C68.7001 63.1604 69.2997 63.76 69.2998 64.5498C69.2998 65.3397 68.7002 65.9402 67.9004 65.9404H54.2998C53.4999 65.9403 52.9004 65.3397 52.9004 64.5498C52.9005 63.76 53.5 63.1602 54.2998 63.1602H67.9004Z" fill="white"/>
<path d="M67.9004 55.1904C68.7002 55.1906 69.2998 55.7902 69.2998 56.5801C69.2998 57.3699 68.7002 57.9695 67.9004 57.9697H54.2998C53.4999 57.9696 52.9004 57.37 52.9004 56.5801C52.9004 55.7901 53.4999 55.1905 54.2998 55.1904H67.9004Z" fill="white"/>
<path d="M67.9004 47.2197C68.7002 47.22 69.2998 47.9105 69.2998 48.6104C69.2996 49.4 68.7001 49.9998 67.9004 50H54.2998C53.5 49.9999 52.9006 49.4001 52.9004 48.6104C52.9004 47.8204 53.4999 47.2198 54.2998 47.2197H67.9004Z" fill="white"/>
<path d="M62.2998 39.2598C63.0998 39.2598 63.7002 39.8604 63.7002 40.6504C63.7 41.4402 63.0997 42.04 62.2998 42.04H54.2998C53.5 42.0399 52.9006 41.4401 52.9004 40.6504C52.9004 39.8605 53.4999 39.2599 54.2998 39.2598H62.2998Z" fill="white"/>
<path d="M72.2002 31.3799C72.8999 31.38 73.4994 32.0698 73.5996 32.7695C73.5996 33.5595 73.0001 34.1601 72.2002 34.1602H52.2002C51.4002 34.1602 50.7998 33.5595 50.7998 32.7695C50.8 31.9798 51.4004 31.3799 52.2002 31.3799H72.2002Z" fill="white"/>
<path d="M72.2002 23.5195C73.0001 23.5196 73.5996 24.1202 73.5996 24.9102C73.5995 25.7 73 26.2997 72.2002 26.2998H52.2002C51.4002 26.2998 50.7999 25.7101 50.7998 24.9102C50.7998 24.1202 51.4002 23.5195 52.2002 23.5195H72.2002Z" fill="white"/>
<path d="M59.7998 12.0596C60.5998 12.0596 61.2002 12.6602 61.2002 13.4502C61.2001 14.2401 60.5997 14.8398 59.7998 14.8398H52.0996C51.3999 14.8396 50.8003 14.15 50.7002 13.4502C50.7002 12.6603 51.2998 12.0598 52.0996 12.0596H59.7998Z" fill="white"/>
<path d="M17.2002 35.0703C20.8002 31.5803 26.5004 31.5803 29.9004 35.0703C33.3999 38.5502 33.3999 44.2298 29.9004 47.7197C26.4004 51.2097 20.7002 51.1997 17.2002 47.7197C13.7003 44.2397 13.7003 38.5603 17.2002 35.0703Z" fill="white"/>
<path fill-rule="evenodd" clip-rule="evenodd" d="M28.5 0C41.3 0.1 54.2 0.0996094 67 0.0996094C67.3999 0.0996094 67.7996 0.200151 68.0996 0.5L79.5996 11.96V11.9502C79.7996 12.2502 80 12.5502 80 12.9502V78.6104C79.9998 79.4002 79.3995 80 78.5996 80H23.5C22.7001 80 22.0998 79.4102 22.0996 78.6104V66.75C9.69987 65.9498 0.000120766 55.7 0 43.2402C0 30.7804 9.7998 20.5205 22.0996 19.8203V1.38965C22.0998 0.599822 22.7001 0 23.5 0H28.5ZM24.9004 19.7305C37.4002 20.4307 47.2002 30.7904 47.2002 43.2402C47.2001 55.6901 37.5995 65.95 25.0996 66.75H24.9004V77.21H77.2002V14.3398H67.0996C66.2999 14.3397 65.7003 13.75 65.7002 12.9502V2.88965L24.9004 2.79004V19.7305ZM38.4004 28.4902C30.3004 20.4203 17.0004 20.4203 8.90039 28.4902C0.500391 36.8602 0.80039 50.4105 9.40039 58.4805C17.5004 51.3105 29.7004 51.3105 37.9004 58.4805C46.5003 50.4106 46.8001 36.8603 38.4004 28.4902Z" fill="white"/>
</g>
<defs>
<clipPath id="clip0_5_2">
<rect width="80" height="80" fill="white"/>
</clipPath>
</defs>
</svg>
