<svg width="84" height="80" viewBox="0 0 84 80" fill="none" xmlns="http://www.w3.org/2000/svg">
<g clip-path="url(#clip0_18_2)">
<path d="M83.1105 69.6647H30.129C29.1327 66.3031 26.0193 63.9338 22.47 63.9338C18.9207 63.9338 15.8073 66.3031 14.811 69.6647H0.889548C0.400297 69.6647 0 70.067 0 70.5588V73.1426C0 73.6343 0.400297 74.0366 0.889548 74.0366H14.7487C15.6649 77.5324 18.805 80 22.47 80C26.1349 80 29.2661 77.5324 30.1913 74.0366H83.1105C83.5997 74.0366 84 73.6343 84 73.1426V70.5588C84 70.067 83.5997 69.6647 83.1105 69.6647ZM26.1171 71.9624C26.1171 73.983 24.4804 75.6281 22.47 75.6281C20.4596 75.6281 18.8228 73.983 18.8228 71.9624C18.8228 69.9419 20.4596 68.2968 22.47 68.2968C24.4804 68.2968 26.1171 69.9419 26.1171 71.9624Z" fill="white"/>
<path d="M55.7924 27.966L31.3566 13.7863C30.3603 13.2141 29.1772 13.2141 28.1987 13.7863C27.2024 14.3585 26.6153 15.3867 26.6153 16.54V44.8994C26.6153 46.0528 27.2113 47.0809 28.1987 47.6531C28.6879 47.9392 29.2305 48.0823 29.7821 48.0823C30.3336 48.0823 30.8762 47.9303 31.3655 47.6531L55.8013 33.4734C56.7887 32.9012 57.3758 31.873 57.3758 30.7197C57.3758 29.5664 56.7798 28.5382 55.7924 27.966ZM51.8517 30.7287L30.9652 42.8431V18.6053L51.8517 30.7287Z" fill="white"/>
<path d="M76.5812 0H7.40993C3.32691 0 0 3.34376 0 7.44747V54.0009C0 58.1046 3.32691 61.4484 7.40993 61.4484H76.5901C80.6731 61.4484 84 58.1046 84 54.0009V7.44747C83.9911 3.34376 80.6642 0 76.5812 0ZM79.6501 7.44747V53.8757C79.6501 53.8757 79.6501 53.9562 79.6501 54.0009C79.6501 55.6996 78.2802 57.0764 76.5901 57.0764H7.40993C5.71979 57.0764 4.34989 55.6996 4.34989 54.0009V7.44747C4.34989 5.74877 5.71979 4.37193 7.40993 4.37193H76.5901C78.2802 4.37193 79.6501 5.74877 79.6501 7.44747Z" fill="white"/>
</g>
<defs>
<clipPath id="clip0_18_2">
<rect width="84" height="80" fill="white"/>
</clipPath>
</defs>
</svg>
