<svg width="118" height="54" viewBox="0 0 118 54" fill="none" xmlns="http://www.w3.org/2000/svg">
<g clip-path="url(#clip0_9_92)">
<path d="M94.59 25.91L94.57 45.4C94.57 48.33 96.71 49.8 98.46 48.49L103.31 44.86L107.16 52.29C107.92 53.77 109.55 54.41 110.8 53.71L113.64 52.14C114.89 51.44 115.28 49.71 114.52 48.22L110.67 40.78L117 38.54C118.55 38 118.36 35.35 115.97 33.59L100.08 22.96C97.54 21.26 94.6 22.45 94.59 25.89V25.91Z" fill="white"/>
<path fill-rule="evenodd" clip-rule="evenodd" d="M17.09 0C7.51 0 0 8.72 0 19.14C0 29.56 7.51 38.27 17.09 38.27H89.77V33.79H17.09C10.17 33.79 4.4 27.42 4.4 19.13C4.4 10.84 10.17 4.46 17.09 4.46H97.53C104.45 4.46 110.2 10.84 110.2 19.13C110.2 20.68 109.99 22.27 109.61 23.67L113.5 25.91C113.63 25.53 113.75 25.15 113.86 24.77C114.35 22.99 114.61 21.1 114.61 19.14C114.61 8.71 107.09 0 97.52 0H17.08H17.09Z" fill="white"/>
<path fill-rule="evenodd" clip-rule="evenodd" d="M18.51 11.68C16.84 11.64 15.73 13.42 16.5 14.93L21.59 25.35C22.44 27.09 24.93 26.98 25.62 25.17L27.55 20.12L29.49 25.17C30.17 26.98 32.67 27.1 33.52 25.35L38.6 14.93C39.15 13.82 38.7 12.48 37.6 11.93C36.51 11.39 35.18 11.84 34.64 12.95L31.78 18.82L29.6 13.14C28.87 11.24 26.23 11.24 25.49 13.14L23.32 18.84L20.44 12.96C20.09 12.19 19.34 11.71 18.51 11.68Z" fill="white"/>
<path fill-rule="evenodd" clip-rule="evenodd" d="M44.63 11.68C42.96 11.64 41.85 13.42 42.62 14.93L47.71 25.35C48.56 27.09 51.05 26.98 51.73 25.17L53.66 20.12L55.6 25.17C56.28 26.98 58.77 27.1 59.62 25.35L64.71 14.93C65.3 13.82 64.87 12.43 63.75 11.87C62.64 11.31 61.29 11.8 60.77 12.95L57.9 18.83L55.72 13.13C54.99 11.23 52.34 11.23 51.61 13.13L49.43 18.83L46.56 12.95C46.21 12.19 45.46 11.7 44.63 11.67V11.68Z" fill="white"/>
<path fill-rule="evenodd" clip-rule="evenodd" d="M70.76 11.68C69.09 11.64 67.99 13.42 68.75 14.93L73.84 25.35C74.69 27.07 77.16 26.96 77.85 25.17L79.78 20.12L81.72 25.17C82.41 26.96 84.89 27.08 85.73 25.35L90.82 14.93C91.41 13.82 90.98 12.43 89.86 11.87C88.74 11.31 87.39 11.8 86.88 12.95L84 18.83L81.82 13.13C81.09 11.23 78.45 11.23 77.72 13.13L75.54 18.81L72.68 12.94C72.33 12.18 71.58 11.69 70.75 11.67L70.76 11.68Z" fill="white"/>
</g>
<defs>
<clipPath id="clip0_9_92">
<rect width="118" height="54" fill="white"/>
</clipPath>
</defs>
</svg>
