<svg width="50" height="50" viewBox="0 0 50 50" fill="none" xmlns="http://www.w3.org/2000/svg">
<g clip-path="url(#clip0_9_100)">
<path d="M25 50C38.81 50 50 38.81 50 25C50 11.19 38.81 0 25 0C11.19 0 0 11.19 0 25C0 38.81 11.19 50 25 50Z" fill="#231F20"/>
<path fill-rule="evenodd" clip-rule="evenodd" d="M35.33 18.57C36.45 17.51 36.52 15.75 35.46 14.62C34.4 13.5 32.63 13.43 31.51 14.5C31.51 14.5 31.42 14.59 31.38 14.62L24.98 21.03L18.58 14.63C17.53 13.51 15.76 13.44 14.63 14.5C13.51 15.55 13.44 17.33 14.51 18.45C14.55 18.5 14.6 18.54 14.63 18.57L21.04 24.97L14.64 31.37C13.54 32.44 13.52 34.22 14.59 35.32C15.64 36.39 17.34 36.44 18.45 35.45L18.57 35.32L24.97 28.92L31.37 35.32C32.41 36.46 34.18 36.53 35.32 35.49C36.44 34.47 36.53 32.73 35.53 31.59C35.5 31.56 35.47 31.53 35.44 31.5C35.41 31.48 35.35 31.41 35.31 31.38L28.91 24.98L35.31 18.58V18.55L35.33 18.57Z" fill="white"/>
</g>
<defs>
<clipPath id="clip0_9_100">
<rect width="50" height="50" fill="white"/>
</clipPath>
</defs>
</svg>
