<svg width="65" height="65" viewBox="0 0 65 65" fill="none" xmlns="http://www.w3.org/2000/svg">
<g clip-path="url(#clip0_15_4)">
<path d="M42.21 47.14V52.32C42.21 53.04 41.63 53.61 40.92 53.61H24.1C23.38 53.61 22.81 53.03 22.81 52.32V47.14C22.81 46.43 23.39 45.85 24.1 45.85H40.92C41.64 45.85 42.21 46.43 42.21 47.14Z" fill="#1D1D1B"/>
<path d="M46.41 36.08V41.26C46.41 41.98 45.83 42.55 45.12 42.55H19.88C19.16 42.55 18.59 41.97 18.59 41.26V36.08C18.59 35.37 19.17 34.79 19.88 34.79H45.12C45.84 34.79 46.41 35.37 46.41 36.08Z" fill="#1D1D1B"/>
<path d="M50.62 25.03V30.21C50.62 30.93 50.04 31.5 49.33 31.5H15.68C14.96 31.5 14.39 30.92 14.39 30.21V25.03C14.39 24.31 14.97 23.74 15.68 23.74H49.33C50.05 23.74 50.62 24.32 50.62 25.03Z" fill="#1D1D1B"/>
<path d="M46.41 12.68V17.86C46.41 18.58 45.83 19.15 45.12 19.15H19.88C19.16 19.15 18.59 18.57 18.59 17.86V12.68C18.59 11.96 19.17 11.39 19.88 11.39H45.12C45.84 11.39 46.41 11.97 46.41 12.68Z" fill="#1D1D1B"/>
<path d="M32.5 0C50.45 0 65 14.55 65 32.5C65 50.45 50.45 65 32.5 65C14.55 65 0 50.45 0 32.5C0 14.55 14.55 0 32.5 0ZM50.62 30.21V25.03C50.62 24.32 50.05 23.74 49.33 23.74H15.68C14.97 23.74 14.39 24.31 14.39 25.03V30.21C14.39 30.92 14.96 31.5 15.68 31.5H49.33C50.04 31.5 50.62 30.93 50.62 30.21ZM46.41 41.26V36.08C46.41 35.37 45.84 34.79 45.12 34.79H19.88C19.17 34.79 18.59 35.37 18.59 36.08V41.26C18.59 41.97 19.16 42.55 19.88 42.55H45.12C45.83 42.55 46.41 41.98 46.41 41.26ZM46.41 17.86V12.68C46.41 11.97 45.84 11.39 45.12 11.39H19.88C19.17 11.39 18.59 11.96 18.59 12.68V17.86C18.59 18.57 19.16 19.15 19.88 19.15H45.12C45.83 19.15 46.41 18.58 46.41 17.86ZM42.21 52.32V47.14C42.21 46.43 41.64 45.85 40.92 45.85H24.1C23.39 45.85 22.81 46.43 22.81 47.14V52.32C22.81 53.03 23.38 53.61 24.1 53.61H40.92C41.63 53.61 42.21 53.04 42.21 52.32Z" fill="white"/>
</g>
<defs>
<clipPath id="clip0_15_4">
<rect width="65" height="65" fill="white"/>
</clipPath>
</defs>
</svg>
