<svg width="184" height="77" viewBox="0 0 184 77" fill="none" xmlns="http://www.w3.org/2000/svg">
<g clip-path="url(#clip0_8_41)">
<path d="M114.989 45.7776C114.989 46.5646 114.668 46.9631 114.038 46.9631C113.667 46.9631 113.397 46.8237 113.227 46.5347C113.127 46.3654 113.067 46.1163 113.067 45.7975C113.067 45.0005 113.387 44.612 114.028 44.612C114.668 44.612 114.989 45.0105 114.989 45.7876M112.466 44.4028C112.146 44.7614 111.976 45.2097 111.976 45.7577C111.976 46.3953 112.146 46.8834 112.486 47.2222C112.857 47.5908 113.367 47.78 114.018 47.78C114.668 47.78 115.139 47.6107 115.499 47.2819C115.89 46.9233 116.09 46.4451 116.09 45.8374C116.09 45.2695 115.93 44.7913 115.619 44.4227C115.279 44.0142 114.748 43.805 114.028 43.805C113.347 43.805 112.827 44.0142 112.466 44.4127M107.481 42.4202V47.7103H108.552V44.6718H109.423C109.723 44.6718 109.924 44.7315 110.034 44.8511C110.094 44.9109 110.134 44.9906 110.144 45.0802C110.164 45.1699 110.174 45.3193 110.174 45.5186V47.7203H111.245V45.3094C111.245 44.7813 111.125 44.4127 110.874 44.1936C110.744 44.074 110.594 43.9843 110.404 43.9345C110.224 43.8847 109.964 43.8548 109.643 43.8548H108.542V42.4302H107.471L107.481 42.4202ZM106.42 42.4202H105.349V47.7103H106.42V42.4202ZM103.297 46.8834H102.065C101.855 46.8834 101.705 46.8535 101.615 46.8037C101.525 46.7539 101.485 46.6643 101.485 46.5347C101.485 46.4252 101.525 46.3355 101.595 46.2757C101.665 46.2159 101.765 46.1761 101.885 46.1761H103.297V46.8834ZM101.985 45.3592C101.565 45.3592 101.265 45.3891 101.074 45.4588C100.864 45.5285 100.704 45.668 100.574 45.8673C100.444 46.0665 100.384 46.3056 100.384 46.5646C100.384 46.993 100.544 47.3118 100.854 47.521C100.974 47.6007 101.104 47.6505 101.265 47.6705C101.415 47.6904 101.695 47.7103 102.095 47.7103H104.348V45.5285C104.378 44.6917 104.097 44.1537 103.507 43.9345C103.387 43.8947 103.257 43.8748 103.136 43.8548C103.016 43.8449 102.786 43.8349 102.466 43.8349H100.654V44.6618H102.466C102.786 44.6618 103.006 44.7116 103.116 44.8013C103.227 44.8909 103.287 45.0802 103.287 45.3492H101.975L101.985 45.3592ZM97.7109 44.6718C98.3916 44.6718 98.7319 45.0304 98.7319 45.7577C98.7319 46.0864 98.6419 46.3554 98.4717 46.5746C98.3015 46.7838 98.0513 46.8834 97.7209 46.8834H96.9301V44.6718H97.7209H97.7109ZM96.9201 42.4202H95.849V47.7103H97.5908C97.9411 47.7103 98.2114 47.6904 98.4016 47.6505C98.5918 47.6107 98.782 47.541 98.9522 47.4314C99.5228 47.0827 99.8131 46.5148 99.8131 45.7278C99.8131 45.409 99.753 45.1101 99.6429 44.8411C99.4827 44.4825 99.2325 44.2135 98.8721 44.0342C98.6118 43.9046 98.2715 43.8449 97.8611 43.8449H96.9101V42.4202H96.9201ZM93.7868 46.8834H92.5556C92.3454 46.8834 92.1952 46.8535 92.1051 46.8037C92.015 46.7539 91.975 46.6643 91.975 46.5347C91.975 46.4252 92.015 46.3355 92.0851 46.2757C92.1552 46.2159 92.2553 46.1761 92.3754 46.1761H93.7868V46.8834ZM92.4755 45.3592C92.0551 45.3592 91.7547 45.3891 91.5646 45.4588C91.3643 45.5285 91.1942 45.668 91.064 45.8673C90.9339 46.0665 90.8738 46.3056 90.8738 46.5646C90.8738 46.993 91.034 47.3118 91.3443 47.521C91.4644 47.6007 91.5946 47.6505 91.7548 47.6705C91.9049 47.6904 92.1852 47.7103 92.5856 47.7103H94.8379V45.5285C94.868 44.6917 94.5877 44.1537 93.9971 43.9345C93.8769 43.8947 93.7468 43.8748 93.6267 43.8548C93.5066 43.8449 93.2763 43.8349 92.956 43.8349H91.1441V44.6618H92.956C93.2763 44.6618 93.4965 44.7116 93.6067 44.8013C93.7168 44.8909 93.7768 45.0802 93.7768 45.3492H92.4655L92.4755 45.3592ZM87.4703 47.7103H88.5414V44.6718H88.8518C89.122 44.6718 89.3022 44.7216 89.4023 44.8212C89.5024 44.9208 89.5525 45.1101 89.5525 45.3791V45.5883H90.5735V45.2097C90.5735 44.9109 90.5535 44.6917 90.5035 44.5323C90.4534 44.3729 90.3733 44.2434 90.2632 44.1338C90.1431 44.0242 89.9929 43.9445 89.8127 43.9046C89.6326 43.8648 89.3823 43.8349 89.062 43.8349H87.4803V47.7004L87.4703 47.7103ZM84.6674 47.7103H85.7986V43.3667H87.5604V42.4202H82.9757V43.3667H84.6674V47.7103ZM80.0026 45.7776C80.0026 46.5646 79.6823 46.9631 79.0516 46.9631C78.6812 46.9631 78.411 46.8237 78.2408 46.5347C78.1407 46.3654 78.0806 46.1163 78.0806 45.7975C78.0806 45.0005 78.401 44.612 79.0416 44.612C79.6823 44.612 80.0026 45.0105 80.0026 45.7876M77.47 44.4028C77.1497 44.7614 76.9795 45.2097 76.9795 45.7577C76.9795 46.3953 77.1497 46.8834 77.49 47.2222C77.8604 47.5908 78.3709 47.78 79.0216 47.78C79.6723 47.78 80.1428 47.6107 80.5031 47.2819C80.8935 46.9233 81.0937 46.4451 81.0937 45.8374C81.0937 45.2695 80.9336 44.7913 80.6233 44.4227C80.2829 44.0142 79.7524 43.805 79.0316 43.805C78.3509 43.805 77.8304 44.0142 77.47 44.4127M74.3568 46.8834C74.1165 46.8834 73.9063 46.8137 73.7361 46.6941C73.4859 46.5049 73.3557 46.196 73.3557 45.7577C73.3557 45.4588 73.4358 45.2097 73.586 45.0105C73.7662 44.7813 74.0164 44.6718 74.3568 44.6718H75.1276V46.8834H74.3568ZM74.1165 43.8449C73.616 43.8449 73.2256 43.9644 72.9353 44.2035C72.4849 44.5721 72.2646 45.0902 72.2646 45.7477C72.2646 46.1462 72.3447 46.4949 72.4949 46.7738C72.7151 47.1923 73.0554 47.4712 73.5159 47.6107C73.7061 47.6705 73.9864 47.7004 74.3568 47.7004H76.1987V42.4103H75.1276V43.8349H74.1265L74.1165 43.8449ZM69.0613 45.7776C69.0613 46.5646 68.741 46.9631 68.1103 46.9631C67.74 46.9631 67.4697 46.8237 67.2995 46.5347C67.1994 46.3654 67.1393 46.1163 67.1393 45.7975C67.1393 45.0005 67.4597 44.612 68.1003 44.612C68.741 44.612 69.0613 45.0105 69.0613 45.7876M66.5387 44.4028C66.2184 44.7614 66.0482 45.2097 66.0482 45.7577C66.0482 46.3953 66.2184 46.8834 66.5587 47.2222C66.9291 47.5908 67.4396 47.78 68.0803 47.78C68.721 47.78 69.2015 47.6107 69.5618 47.2819C69.9522 46.9233 70.1524 46.4451 70.1524 45.8374C70.1524 45.2695 69.9923 44.7913 69.682 44.4227C69.3416 44.0142 68.8111 43.805 68.0903 43.805C67.4096 43.805 66.8891 44.0142 66.5287 44.4127M64.0261 43.8449C63.6657 43.8449 63.3855 43.8748 63.1552 43.9345C62.935 43.9943 62.7448 44.0939 62.5846 44.2234C62.1842 44.5622 61.984 45.0802 61.984 45.7676C61.984 46.3355 62.1542 46.8037 62.4845 47.1723C62.6647 47.3716 62.8649 47.5111 63.0952 47.5908C63.3254 47.6705 63.6357 47.7103 64.0261 47.7103H65.4876V46.8834H64.3364C64.1162 46.8834 63.936 46.8735 63.8159 46.8436C63.6958 46.8137 63.5757 46.7639 63.4655 46.6842C63.2053 46.4949 63.0751 46.196 63.0751 45.7776C63.0751 45.409 63.1552 45.14 63.3154 44.9607C63.4856 44.7714 63.7859 44.6718 64.2063 44.6718H65.4876V43.8449H64.0261ZM61.1932 42.4202H60.1221V43.4464H61.1932V42.4202ZM60.1221 47.7103H61.1932V43.8449H60.1221V47.7103ZM59.071 42.4202H57.9999V47.7103H59.071V42.4202ZM55.0969 44.6718C55.7776 44.6718 56.118 45.0304 56.118 45.7577C56.118 46.0864 56.0279 46.3554 55.8577 46.5746C55.6875 46.7838 55.4372 46.8834 55.1069 46.8834H54.3161V44.6718H55.1069H55.0969ZM54.3061 42.4202H53.235V47.7103H54.9668C55.3171 47.7103 55.5874 47.6904 55.7776 47.6505C55.9678 47.6107 56.158 47.541 56.3282 47.4314C56.8988 47.0827 57.1891 46.5148 57.1891 45.7278C57.1891 45.409 57.129 45.1101 57.0189 44.8411C56.8587 44.4825 56.6085 44.2135 56.2481 44.0342C55.9878 43.9046 55.6475 43.8449 55.237 43.8449H54.2861V42.4202H54.3061ZM50.6023 42.3605L49.8715 43.3966H50.5522L51.5432 42.3605H50.6023ZM50.1117 46.8834C49.9516 46.8834 49.8214 46.8336 49.7314 46.734C49.6413 46.6344 49.5912 46.5049 49.5912 46.3255V43.8449H48.5201V46.2159C48.5201 46.7539 48.6602 47.1524 48.9305 47.3915C49.0607 47.5111 49.2108 47.5908 49.371 47.6406C49.5311 47.6804 49.7714 47.7103 50.0717 47.7103H52.1739V43.8449H51.1028V46.8834H50.0917H50.1117ZM44.2657 43.3667H45.8273C46.0175 43.3667 46.1677 43.3866 46.2578 43.4165C46.508 43.5161 46.6382 43.7452 46.6382 44.1039C46.6382 44.4327 46.5581 44.6618 46.3879 44.7913C46.2778 44.881 46.0876 44.9208 45.8073 44.9208H44.2657V43.3667ZM46.0876 45.8673C46.3979 45.8673 46.6382 45.8374 46.8183 45.7876C46.9985 45.7377 47.1687 45.6381 47.3189 45.4986C47.499 45.3392 47.6292 45.15 47.7293 44.9109C47.8294 44.6718 47.8794 44.4127 47.8794 44.1437C47.8794 43.815 47.7994 43.5161 47.6492 43.2471C47.449 42.8785 47.1687 42.6394 46.8284 42.5199C46.6181 42.4501 46.2678 42.4202 45.7873 42.4202H43.1345V47.7103H44.2657V45.8573H46.0876V45.8673ZM39.661 45.7776C39.661 46.5646 39.3406 46.9631 38.71 46.9631C38.3396 46.9631 38.0693 46.8237 37.8991 46.5347C37.799 46.3654 37.739 46.1163 37.739 45.7975C37.739 45.0005 38.0593 44.612 38.7 44.612C39.3406 44.612 39.661 45.0105 39.661 45.7876M37.1283 44.4028C36.808 44.7614 36.6378 45.2097 36.6378 45.7577C36.6378 46.3953 36.808 46.8834 37.1484 47.2222C37.5187 47.5908 38.0293 47.78 38.6699 47.78C39.3106 47.78 39.7911 47.6107 40.1515 47.2819C40.5419 46.9233 40.7421 46.4451 40.7421 45.8374C40.7421 45.2695 40.5819 44.7913 40.2716 44.4227C39.9312 44.0142 39.4007 43.805 38.6799 43.805C37.9992 43.805 37.4787 44.0142 37.1183 44.4127M35.847 42.4202H34.7759V43.4464H35.847V42.4202ZM34.7859 47.7103H35.857V43.8449H34.7859V47.7103ZM31.1121 47.7103H32.1832V44.6718H32.4936C32.7638 44.6718 32.944 44.7216 33.0441 44.8212C33.1442 44.9208 33.1943 45.1101 33.1943 45.3791V45.5883H34.2153V45.2097C34.2153 44.9109 34.1953 44.6917 34.1453 44.5323C34.0952 44.3729 34.0151 44.2434 33.905 44.1338C33.7849 44.0242 33.6347 43.9445 33.4545 43.9046C33.2744 43.8648 33.0241 43.8349 32.7038 43.8349H31.1221V47.7004L31.1121 47.7103ZM29.1101 42.3605L28.3793 43.3966H29.06L30.051 42.3605H29.1101ZM27.9789 45.3592C28.0089 45.1001 28.079 44.9109 28.1991 44.8212C28.3192 44.7216 28.5194 44.6718 28.8097 44.6718H30.2312V43.8449H28.7297C28.3393 43.8449 28.0289 43.8947 27.7887 43.9943C27.5484 44.0939 27.3482 44.2633 27.1781 44.5024C26.9278 44.8511 26.8077 45.2595 26.8077 45.7278C26.8077 46.4451 27.0379 46.983 27.5084 47.3517C27.6786 47.4812 27.8688 47.5808 28.059 47.6306C28.2492 47.6804 28.4994 47.7103 28.8097 47.7103H30.2312V46.8834H28.9299C28.6095 46.8834 28.3793 46.8336 28.2291 46.724C28.079 46.6144 27.9989 46.4351 27.9789 46.1861H30.2312V45.3592H27.9789ZM23.6744 43.8449V44.6718H24.3551V46.2558C24.3551 46.7738 24.4553 47.1524 24.6454 47.3716C24.8457 47.5908 25.166 47.7004 25.6365 47.7004H26.4073V46.8735H25.9868C25.7566 46.8735 25.5964 46.8137 25.5063 46.6842C25.4463 46.5945 25.4162 46.3953 25.4162 46.0665V44.6618H26.4073V43.8349H25.4162V42.4103H24.3451V43.8349H23.6644L23.6744 43.8449ZM20.8215 43.8449C20.4011 43.8449 20.1108 43.9146 19.9406 44.0441C19.6603 44.2733 19.5202 44.5821 19.5202 44.9706C19.5202 45.1798 19.5602 45.3691 19.6403 45.5385C19.7204 45.7178 19.8405 45.8573 19.9806 45.9569C20.1008 46.0366 20.2209 46.0964 20.361 46.1263C20.5012 46.1562 20.6914 46.1761 20.9416 46.1761H21.5923C21.8325 46.1761 21.9927 46.196 22.0628 46.2259C22.1829 46.2857 22.253 46.3953 22.253 46.5547C22.253 46.744 22.1629 46.8535 21.9727 46.8735C21.8826 46.8735 21.7224 46.8834 21.4922 46.8834H19.5902V47.7103H21.8025C22.1929 47.7103 22.4732 47.6804 22.6434 47.6207C22.8136 47.5609 22.9537 47.4413 23.0738 47.262C23.234 47.0229 23.3041 46.7738 23.3041 46.4949C23.3041 46.1263 23.1739 45.8473 22.9137 45.658C22.6834 45.4887 22.3631 45.399 21.9627 45.399H21.332C21.0517 45.399 20.8716 45.3791 20.8115 45.3392C20.6914 45.2695 20.6313 45.1599 20.6313 45.0304C20.6313 44.861 20.6914 44.7614 20.8115 44.7216C20.8716 44.7016 21.0117 44.6917 21.2219 44.6917H23.1139V43.8648H20.8315L20.8215 43.8449ZM18.6893 42.4202H17.6182V43.4464H18.6893V42.4202ZM17.6182 47.7103H18.6893V43.8449H17.6182V47.7103ZM13.0034 47.7103H14.0745V44.6718H15.0055C15.1957 44.6718 15.3358 44.7116 15.4259 44.8013C15.516 44.881 15.5561 45.0204 15.5561 45.2097V47.7103H16.6272V45.3293C16.6272 44.7913 16.487 44.4028 16.2167 44.1537C16.0866 44.0342 15.9365 43.9545 15.7763 43.9046C15.6161 43.8648 15.3759 43.8349 15.0756 43.8349H13.0134V47.7004L13.0034 47.7103ZM11.9523 42.4202H10.8812V43.4464H11.9523V42.4202ZM10.8812 47.7103H11.9523V43.8449H10.8812V47.7103ZM3.78391 42.4202V47.7103H4.86502V43.7353L6.17638 47.7103H7.33758L8.72901 43.7353V47.7103H9.81013V42.4202H8.15842L6.76699 46.5447L5.44562 42.4202H3.78391Z" fill="white"/>
<path d="M32.884 0C42.1836 3.06844 48.6102 9.61379 48.6102 17.1952C48.6102 27.7156 36.2374 36.2535 20.9717 36.2535C14.2347 36.2535 8.05832 34.5897 3.25336 31.8301C8.5188 35.3668 15.8364 37.5585 23.9247 37.5585C39.9613 37.5585 52.9547 28.941 52.9547 18.311C52.9547 9.75327 44.526 2.50058 32.8739 0" fill="white"/>
<path d="M21.0317 27.5164C22.2129 27.5164 23.244 28.1241 23.8346 29.0406C24.4252 28.1241 25.4663 27.5164 26.6375 27.5164C26.7076 27.5164 26.7877 27.5164 26.8577 27.5263C26.3272 26.4006 25.176 25.6135 23.8346 25.6135C22.4932 25.6135 21.352 26.4006 20.8115 27.5263C20.8816 27.5263 20.9516 27.5164 21.0317 27.5164Z" fill="white"/>
<path d="M24.7055 31.8999C24.7656 31.6807 24.7956 31.4416 24.7956 31.2025C24.7956 30.3357 24.4152 29.5786 23.8246 29.1104C23.234 29.5786 22.8536 30.3357 22.8536 31.2025C22.8536 31.4416 22.8836 31.6807 22.9437 31.8999H24.7055Z" fill="white"/>
<path d="M23.0938 32.3083C23.264 32.6969 23.5143 33.0455 23.8346 33.2946C24.1549 33.0455 24.4052 32.7068 24.5754 32.3083H23.0938Z" fill="white"/>
<path d="M23.8346 0.667486C23.244 1.5143 22.7335 2.33122 22.7335 3.47691V24.6173H24.9458V3.47691C24.9458 2.33122 24.4252 1.50433 23.8446 0.667486" fill="white"/>
<path d="M16.477 18.7693C14.9955 18.7693 13.6141 18.59 12.4729 18.2712L16.477 24.6173L20.4811 18.2712C19.33 18.59 17.9585 18.7693 16.477 18.7693Z" fill="white"/>
<path d="M31.1822 18.7693C29.7007 18.7693 28.3192 18.59 27.1781 18.2712L31.1822 24.6173L35.1863 18.2712C34.0351 18.59 32.6637 18.7693 31.1822 18.7693Z" fill="white"/>
<path d="M64.7469 9.64368L69.3016 23.7207L74.0965 9.64368H79.7824V27.6957H76.0686V14.1368L71.2836 27.6957H67.2795L62.7648 14.1368V27.6957H59.061V9.64368H64.7469Z" fill="white"/>
<path d="M87.4103 18.1716H92.7157C93.6667 18.1716 94.3274 18.0221 94.7078 17.7233C95.2784 17.2749 95.5687 16.4979 95.5687 15.3821C95.5687 14.1666 95.1382 13.3896 94.2673 13.0409C93.957 12.9213 93.4665 12.8516 92.7958 12.8516H87.4103V18.1716ZM87.4103 21.3894V27.6957H83.5263V9.64368H92.6457C94.3074 9.64368 95.4986 9.75327 96.2194 9.9824C97.4206 10.3809 98.3616 11.2078 99.0623 12.4531C99.5828 13.3796 99.8431 14.3958 99.8431 15.5116C99.8431 16.4281 99.6729 17.2949 99.3326 18.1118C98.9922 18.9287 98.5217 19.6062 97.9111 20.1342C97.3705 20.6024 96.8 20.9212 96.1793 21.1105C95.5587 21.2898 94.7278 21.3795 93.6567 21.3795H87.4002L87.4103 21.3894Z" fill="white"/>
<path d="M100.594 9.64368V12.8616H106.42V27.6957H110.304V12.8616H116.35V9.64368H100.594Z" fill="white"/>
<path d="M10.2105 67.9541H7.83809L7.53778 69.2392H9.44976V71.3114H7.03727L6.42664 73.8319H4.17431L4.79495 71.3114H3.90403L3.2934 73.8319H1.04107L1.66172 71.3114H0V69.2392H2.17224L2.47255 67.9541H0.760786V66.0213H2.95305L3.62374 63.3116H5.87607L5.18535 66.0213H6.07627L6.74697 63.3116H8.99929L8.31859 66.0213H10.2105V67.9541ZM5.30548 69.2492L5.60579 67.964H4.71487L4.41456 69.2492H5.30548Z" fill="white"/>
<path d="M15.476 73.9913C14.9354 73.9913 14.4449 73.8917 13.9945 73.6925C13.544 73.4932 13.1536 73.2143 12.8232 72.8556C12.4929 72.497 12.2426 72.0686 12.0524 71.5704C11.8622 71.0723 11.7722 70.5244 11.7722 69.9366C11.7722 69.3488 11.8522 68.8308 12.0224 68.3326C12.1926 67.8345 12.4228 67.4061 12.7331 67.0475C13.0335 66.6888 13.3938 66.4099 13.8143 66.2007C14.2347 66.0014 14.6952 65.8918 15.1957 65.8918C15.6962 65.8918 16.1667 66.0014 16.5871 66.2306C17.0076 66.4597 17.3379 66.7785 17.5581 67.1969V63.0127H20.3911V70.7236C20.3911 70.9926 20.4311 71.172 20.5112 71.2815C20.5913 71.3911 20.7314 71.4509 20.9316 71.4708V73.8419C20.4411 73.9415 20.0507 73.9913 19.7404 73.9913C18.7794 73.9913 18.2188 73.6327 18.0687 72.9054L18.0086 72.6265C17.7383 73.1047 17.3779 73.4434 16.9175 73.6626C16.457 73.8817 15.9765 73.9913 15.456 73.9913H15.476ZM16.2568 71.6203C16.7773 71.6203 17.2178 71.3513 17.5982 70.8233V69.4285C17.458 69.0798 17.2578 68.8009 16.9875 68.5917C16.7173 68.3825 16.437 68.2729 16.1367 68.2729C15.9264 68.2729 15.7363 68.3127 15.5661 68.4024C15.3959 68.492 15.2457 68.6116 15.1156 68.771C14.9955 68.9304 14.8954 69.1097 14.8153 69.3189C14.7452 69.5281 14.7052 69.7473 14.7052 69.9864C14.7052 70.4845 14.8453 70.8731 15.1256 71.172C15.4059 71.4708 15.7863 71.6203 16.2468 71.6203H16.2568Z" fill="white"/>
<path d="M22.8536 65.3937V63.0226H25.6865V65.3937H22.8536ZM22.8536 73.8419V66.0413H25.6865V73.8419H22.8536Z" fill="white"/>
<path d="M28.4093 73.8419V69.0699H27.4383V66.9479H28.4093V66.101C28.4093 65.6129 28.4794 65.1745 28.6196 64.776C28.7597 64.3775 28.9499 64.0388 29.2002 63.7499C29.4504 63.461 29.7507 63.2518 30.1011 63.1023C30.4514 62.9529 30.8519 62.8732 31.2823 62.8732C31.943 62.8732 32.6637 63.0226 33.4545 63.3215L32.974 65.4535C32.8039 65.3937 32.6237 65.3439 32.4335 65.3041C32.2433 65.2642 32.0731 65.2443 31.923 65.2443C31.4625 65.2443 31.2423 65.4933 31.2423 66.0014V66.9479H32.954V69.0699H31.2423V73.8419H28.4093Z" fill="white"/>
<path d="M38.4497 73.9913C37.769 73.9913 37.1584 73.8817 36.6178 73.6725C36.0773 73.4633 35.6368 73.1744 35.2664 72.8058C34.906 72.4372 34.6258 72.0188 34.4356 71.5406C34.2454 71.0624 34.1553 70.5642 34.1553 70.0462C34.1553 69.4783 34.2454 68.9503 34.4356 68.4422C34.6157 67.9341 34.896 67.4958 35.2564 67.1272C35.6168 66.7586 36.0672 66.4497 36.5978 66.2306C37.1283 66.0114 37.749 65.9018 38.4497 65.9018C39.1504 65.9018 39.7611 66.0114 40.3016 66.2306C40.8422 66.4497 41.2826 66.7486 41.653 67.1172C42.0234 67.4858 42.2837 67.9142 42.4739 68.4024C42.654 68.8906 42.7542 69.3986 42.7542 69.9366C42.7542 70.086 42.7541 70.2355 42.7341 70.3849C42.7241 70.5344 42.7041 70.6738 42.6841 70.7934H37.1884C37.2184 71.2118 37.3686 71.5107 37.6489 71.69C37.9292 71.8693 38.2295 71.9689 38.5598 71.9689C38.8701 71.9689 39.1604 71.8992 39.4307 71.7597C39.701 71.6203 39.8812 71.431 39.9713 71.1819L42.3738 71.8594C42.0534 72.477 41.5629 72.9951 40.9022 73.3836C40.2416 73.7821 39.4307 73.9814 38.4697 73.9814L38.4497 73.9913ZM39.701 69.1097C39.6509 68.7311 39.5108 68.4422 39.2806 68.2231C39.0503 68.0039 38.76 67.8943 38.3997 67.8943C38.0393 67.8943 37.749 68.0039 37.5187 68.2231C37.2885 68.4422 37.1484 68.7411 37.0983 69.1097H39.701Z" fill="white"/>
<path d="M49.7314 68.4522C49.1808 68.4522 48.6903 68.512 48.2398 68.6315C47.7893 68.7511 47.459 68.9503 47.2388 69.2293V73.8519H44.4059V66.0512H46.9985V67.5356C47.2788 67.0076 47.6192 66.6091 48.0396 66.3302C48.45 66.0512 48.9005 65.9118 49.371 65.9118C49.5612 65.9118 49.6813 65.9118 49.7314 65.9217V68.4622V68.4522Z" fill="white"/>
<path d="M55.217 73.9913C54.5363 73.9913 53.9257 73.8817 53.3851 73.6725C52.8446 73.4633 52.4041 73.1744 52.0337 72.8058C51.6734 72.4372 51.3931 72.0188 51.2029 71.5406C51.0127 71.0624 50.9226 70.5642 50.9226 70.0462C50.9226 69.4783 51.0127 68.9503 51.2029 68.4422C51.3831 67.9341 51.6634 67.4958 52.0237 67.1272C52.3841 66.7586 52.8346 66.4497 53.3651 66.2306C53.8957 66.0114 54.5163 65.9018 55.217 65.9018C55.9177 65.9018 56.5284 66.0114 57.0689 66.2306C57.6095 66.4497 58.0499 66.7486 58.4203 67.1172C58.7907 67.4858 59.051 67.9142 59.2412 68.4024C59.4214 68.8906 59.5215 69.3986 59.5215 69.9366C59.5215 70.086 59.5215 70.2355 59.5014 70.3849C59.4914 70.5344 59.4714 70.6738 59.4514 70.7934H53.9557C53.9858 71.2118 54.1359 71.5107 54.4162 71.69C54.6965 71.8693 54.9968 71.9689 55.3271 71.9689C55.6375 71.9689 55.9278 71.8992 56.198 71.7597C56.4683 71.6203 56.6485 71.431 56.7386 71.1819L59.1411 71.8594C58.8207 72.477 58.3302 72.9951 57.6696 73.3836C57.0089 73.7821 56.198 73.9814 55.237 73.9814L55.217 73.9913ZM56.4683 69.1097C56.4183 68.7311 56.2781 68.4422 56.0479 68.2231C55.8176 68.0039 55.5273 67.8943 55.167 67.8943C54.8066 67.8943 54.5163 68.0039 54.2861 68.2231C54.0558 68.4422 53.9157 68.7411 53.8656 69.1097H56.4683Z" fill="white"/>
<path d="M69.0513 73.8419H66.2184V69.4484C66.2184 69.0599 66.1283 68.781 65.9581 68.6116C65.7879 68.4422 65.5877 68.3526 65.3575 68.3526C65.1273 68.3526 64.867 68.4522 64.5967 68.6614C64.3264 68.8706 64.1262 69.1396 63.9961 69.4584V73.8319H61.1632V66.0313H63.7058V67.187C63.9861 66.7586 64.3765 66.4398 64.877 66.2206C65.3775 66.0014 65.9681 65.8918 66.6588 65.8918C67.1994 65.8918 67.6198 65.9915 67.9301 66.1807C68.2405 66.37 68.4807 66.6091 68.6409 66.898C68.801 67.187 68.9112 67.4958 68.9612 67.8146C69.0113 68.1434 69.0313 68.4323 69.0313 68.7013V73.8319L69.0513 73.8419Z" fill="white"/>
<path d="M73.6761 75.7447C73.7862 75.8145 73.9664 75.8842 74.2266 75.944C74.4869 76.0038 74.7472 76.0436 75.0175 76.0436C75.2477 76.0436 75.4379 76.0137 75.6081 75.944C75.7682 75.8742 75.8583 75.7547 75.8583 75.5853C75.8583 75.416 75.7883 75.2964 75.6381 75.2366C75.488 75.1769 75.2877 75.137 75.0375 75.137C74.8273 75.137 74.607 75.1569 74.3768 75.1868C74.1466 75.2167 73.9764 75.2466 73.8663 75.2665L74.4869 73.9614C73.8763 73.9017 73.3457 73.7522 72.8853 73.5131C72.4248 73.274 72.0344 72.9752 71.7141 72.6065C71.3937 72.2379 71.1535 71.8295 70.9933 71.3712C70.8331 70.9129 70.743 70.4347 70.743 69.9366C70.743 69.3986 70.8331 68.8906 71.0233 68.4024C71.2135 67.9142 71.4838 67.4858 71.8542 67.1172C72.2246 66.7486 72.665 66.4497 73.2056 66.2306C73.7461 66.0114 74.3568 65.9018 75.0575 65.9018C76.0085 65.9018 76.8093 66.1011 77.45 66.4995C78.0906 66.898 78.5711 67.4061 78.8915 68.0238L76.1386 68.8507C75.8683 68.4622 75.508 68.2729 75.0475 68.2729C74.6571 68.2729 74.3368 68.4223 74.0665 68.7112C73.7962 69.0001 73.6661 69.4186 73.6661 69.9466C73.6661 70.4746 73.7962 70.893 74.0665 71.1819C74.3368 71.4708 74.6671 71.6203 75.0475 71.6203C75.508 71.6203 75.8683 71.431 76.1386 71.0424L78.8915 71.8693C78.6012 72.4372 78.1807 72.9054 77.6302 73.284C77.0696 73.6626 76.3889 73.8917 75.5881 73.9614L75.3178 74.35C75.3778 74.35 75.4379 74.3301 75.508 74.3301C75.568 74.3301 75.6481 74.3301 75.7282 74.3301C75.9084 74.3301 76.0786 74.35 76.2487 74.3998C76.4189 74.4396 76.5691 74.5094 76.6992 74.599C76.8293 74.6887 76.9294 74.8083 77.0095 74.9577C77.0896 75.1071 77.1296 75.2865 77.1296 75.4957C77.1296 75.9141 76.9495 76.2727 76.5891 76.5716C76.2287 76.8705 75.6481 77.0199 74.8673 77.0199C74.5069 77.0199 74.1866 76.99 73.9063 76.9203C73.626 76.8605 73.3858 76.7808 73.1856 76.7011L73.7061 75.7547L73.6761 75.7447Z" fill="white"/>
<path d="M82.8255 73.9913C82.4351 73.9913 82.0748 73.9316 81.7344 73.802C81.3941 73.6725 81.1038 73.4932 80.8635 73.274C80.6233 73.0549 80.4331 72.7859 80.2929 72.477C80.1528 72.1682 80.0827 71.8394 80.0827 71.4808C80.0827 71.0823 80.1628 70.7236 80.333 70.3949C80.5031 70.0661 80.7334 69.7872 81.0337 69.5481C81.334 69.309 81.6843 69.1296 82.0948 69.0001C82.5052 68.8706 82.9657 68.8108 83.4562 68.8108C84.0868 68.8108 84.6174 68.9105 85.0378 69.1097V68.8706C85.0378 68.502 84.9277 68.233 84.7175 68.0537C84.5073 67.8744 84.1569 67.7847 83.6864 67.7847C83.236 67.7847 82.8255 67.8544 82.4451 68.0039C82.0647 68.1434 81.6743 68.3526 81.2539 68.6315L80.4331 66.8781C81.4641 66.2206 82.6453 65.8819 83.9667 65.8819C85.218 65.8819 86.179 66.1608 86.8597 66.7088C87.5404 67.2567 87.8707 68.0935 87.8707 69.1994V70.7137C87.8707 70.9827 87.9108 71.162 87.9909 71.2716C88.0709 71.3712 88.2111 71.4409 88.4113 71.4609V73.8319C88.1811 73.8817 87.9708 73.9216 87.7606 73.9415C87.5604 73.9614 87.3802 73.9814 87.2201 73.9814C86.7095 73.9814 86.3291 73.8917 86.0689 73.7024C85.8086 73.5231 85.6384 73.2541 85.5583 72.8955L85.4983 72.6165C85.1479 73.0648 84.7475 73.4035 84.287 73.6327C83.8266 73.8618 83.3461 73.9814 82.8255 73.9814V73.9913ZM83.6664 71.9789C83.8366 71.9789 84.0067 71.949 84.1869 71.8992C84.3671 71.8494 84.5273 71.7697 84.6674 71.68C84.7775 71.6003 84.8676 71.5107 84.9377 71.421C85.0078 71.3314 85.0378 71.2317 85.0378 71.1321V70.5543C84.8676 70.4945 84.6875 70.4447 84.4872 70.4048C84.287 70.365 84.1069 70.3451 83.9467 70.3451C83.5963 70.3451 83.316 70.4248 83.0858 70.5941C82.8556 70.7635 82.7454 70.9727 82.7454 71.2317C82.7454 71.4509 82.8355 71.6302 83.0057 71.7697C83.1759 71.9092 83.3961 71.9789 83.6664 71.9789Z" fill="white"/>
<path d="M93.4165 73.9913C92.7358 73.9913 92.0651 73.8817 91.4044 73.6626C90.7537 73.4434 90.1931 73.1146 89.7327 72.6862L90.7037 70.9926C91.1942 71.3214 91.6646 71.5704 92.1151 71.7498C92.5656 71.9291 92.986 72.0188 93.3564 72.0188C93.7568 72.0188 93.947 71.8992 93.947 71.6501C93.947 71.5107 93.8669 71.3911 93.7168 71.2915C93.5666 71.1919 93.2663 71.0823 92.8158 70.9528C92.2553 70.7934 91.7948 70.6439 91.4244 70.4845C91.054 70.3251 90.7537 70.1657 90.5135 69.9864C90.2832 69.8071 90.1131 69.6078 90.0129 69.3887C89.9128 69.1695 89.8628 68.9105 89.8628 68.6216C89.8628 68.2231 89.9429 67.8644 90.103 67.5257C90.2632 67.187 90.4834 66.898 90.7637 66.649C91.044 66.3999 91.3844 66.2106 91.7748 66.0811C92.1652 65.9516 92.5956 65.8819 93.0661 65.8819C93.6467 65.8819 94.1873 65.9516 94.7078 66.101C95.2283 66.2505 95.7489 66.5494 96.2794 67.0076L95.2083 68.7012C94.7178 68.3824 94.3174 68.1633 93.9871 68.0238C93.6567 67.8843 93.3564 67.8246 93.0661 67.8246C92.8959 67.8246 92.7558 67.8544 92.6457 67.9242C92.5356 67.984 92.4855 68.0935 92.4855 68.233C92.4855 68.3824 92.5656 68.502 92.7257 68.5917C92.8859 68.6813 93.1962 68.7909 93.6667 68.9105C94.2373 69.0599 94.7078 69.2193 95.0982 69.3787C95.4886 69.5381 95.7989 69.7174 96.0292 69.9167C96.2594 70.106 96.4296 70.3251 96.5297 70.5642C96.6298 70.8033 96.6798 71.0823 96.6798 71.4011C96.6798 71.8095 96.5997 72.1682 96.4596 72.487C96.3195 72.8058 96.0992 73.0748 95.8089 73.3039C95.5286 73.5331 95.1883 73.7024 94.7779 73.822C94.3775 73.9415 93.917 74.0013 93.4165 74.0013V73.9913Z" fill="white"/>
<path d="M101.325 73.9913C100.844 73.9913 100.404 73.8917 100.003 73.6825C99.5928 73.4832 99.2425 73.1943 98.9422 72.8257C98.6419 72.4571 98.4116 72.0287 98.2414 71.5306C98.0713 71.0325 97.9912 70.4945 97.9912 69.9067C97.9912 69.3189 98.0813 68.8009 98.2715 68.3027C98.4517 67.8046 98.7019 67.3862 99.0223 67.0275C99.3426 66.6689 99.723 66.39 100.163 66.1907C100.604 65.9915 101.084 65.8819 101.615 65.8819C102.206 65.8819 102.716 66.0014 103.116 66.2405C103.527 66.4796 103.867 66.8084 104.148 67.2368V66.0313H106.61V73.7223C106.61 73.9913 106.66 74.1706 106.76 74.2802C106.86 74.3799 107.041 74.4496 107.301 74.4695V76.8406C107.051 76.8904 106.78 76.9303 106.5 76.9502C106.22 76.9701 105.959 76.99 105.739 76.99C105.469 76.99 105.219 76.9502 104.988 76.8605C104.758 76.7808 104.548 76.6613 104.368 76.5118C104.188 76.3624 104.047 76.1831 103.947 75.9739C103.847 75.7646 103.787 75.5255 103.787 75.2566V72.6763C103.557 73.1047 103.237 73.4235 102.816 73.6526C102.396 73.8817 101.905 73.9814 101.345 73.9814L101.325 73.9913ZM102.426 71.6203C102.946 71.6203 103.387 71.3513 103.767 70.8233V69.4285C103.627 69.0798 103.427 68.8009 103.157 68.5917C102.886 68.3824 102.606 68.2729 102.306 68.2729C102.095 68.2729 101.905 68.3127 101.735 68.4024C101.565 68.492 101.415 68.6116 101.285 68.771C101.164 68.9304 101.064 69.1097 100.984 69.3189C100.904 69.5281 100.874 69.7473 100.874 69.9864C100.874 70.4845 101.014 70.8731 101.295 71.172C101.575 71.4708 101.955 71.6203 102.416 71.6203H102.426Z" fill="white"/>
<path d="M111.145 73.9913C110.354 73.9913 109.743 73.7522 109.323 73.274C108.902 72.7958 108.702 72.0985 108.702 71.172V66.0413H111.535V70.5344C111.535 70.883 111.615 71.152 111.765 71.3314C111.916 71.5206 112.136 71.6103 112.396 71.6103C112.616 71.6103 112.837 71.5605 113.067 71.4609C113.297 71.3612 113.527 71.1421 113.747 70.8133V66.0413H116.58V70.7236C116.58 70.9926 116.62 71.172 116.701 71.2815C116.781 71.3812 116.921 71.4509 117.121 71.4708V73.8419C116.63 73.9415 116.24 73.9913 115.93 73.9913C114.969 73.9913 114.408 73.6327 114.258 72.9054L114.198 72.6265C113.828 73.1146 113.397 73.4633 112.887 73.6725C112.376 73.8817 111.795 73.9913 111.145 73.9913Z" fill="white"/>
<path d="M122.887 73.9913C122.206 73.9913 121.596 73.8817 121.055 73.6725C120.514 73.4633 120.074 73.1744 119.704 72.8058C119.343 72.4372 119.063 72.0188 118.873 71.5406C118.683 71.0624 118.592 70.5642 118.592 70.0462C118.592 69.4783 118.683 68.9503 118.873 68.4422C119.053 67.9341 119.333 67.4958 119.694 67.1272C120.054 66.7586 120.504 66.4497 121.035 66.2306C121.566 66.0114 122.186 65.9018 122.887 65.9018C123.588 65.9018 124.198 66.0114 124.739 66.2306C125.279 66.4497 125.72 66.7486 126.09 67.1172C126.461 67.4858 126.721 67.9142 126.911 68.4024C127.091 68.8906 127.191 69.3986 127.191 69.9366C127.191 70.086 127.191 70.2355 127.171 70.3849C127.161 70.5344 127.141 70.6738 127.121 70.7934H121.626C121.656 71.2118 121.806 71.5107 122.086 71.69C122.366 71.8693 122.667 71.9689 122.997 71.9689C123.307 71.9689 123.598 71.8992 123.868 71.7597C124.138 71.6203 124.318 71.431 124.408 71.1819L126.811 71.8594C126.491 72.477 126 72.9951 125.339 73.3836C124.679 73.7821 123.868 73.9814 122.907 73.9814L122.887 73.9913ZM124.138 69.1097C124.088 68.7311 123.948 68.4422 123.718 68.2231C123.488 68.0039 123.197 67.8943 122.837 67.8943C122.476 67.8943 122.186 68.0039 121.956 68.2231C121.726 68.4422 121.586 68.7411 121.535 69.1097H124.138Z" fill="white"/>
<path d="M132.076 73.9913C131.396 73.9913 130.725 73.8817 130.064 73.6626C129.414 73.4434 128.853 73.1146 128.393 72.6862L129.364 70.9926C129.854 71.3214 130.325 71.5704 130.775 71.7498C131.226 71.9291 131.646 72.0188 132.016 72.0188C132.417 72.0188 132.607 71.8992 132.607 71.6501C132.607 71.5107 132.527 71.3911 132.377 71.2915C132.227 71.1919 131.926 71.0823 131.476 70.9528C130.915 70.7934 130.455 70.6439 130.084 70.4845C129.714 70.3251 129.414 70.1657 129.173 69.9864C128.943 69.8071 128.773 69.6078 128.673 69.3887C128.573 69.1695 128.523 68.9105 128.523 68.6216C128.523 68.2231 128.603 67.8644 128.763 67.5257C128.923 67.187 129.143 66.898 129.424 66.649C129.704 66.3999 130.044 66.2106 130.435 66.0811C130.825 65.9516 131.256 65.8819 131.726 65.8819C132.307 65.8819 132.847 65.9516 133.368 66.101C133.888 66.2505 134.409 66.5494 134.939 67.0076L133.868 68.7012C133.378 68.3824 132.977 68.1633 132.647 68.0238C132.317 67.8843 132.016 67.8246 131.726 67.8246C131.556 67.8246 131.416 67.8544 131.306 67.9242C131.195 67.984 131.145 68.0935 131.145 68.233C131.145 68.3824 131.226 68.502 131.386 68.5917C131.546 68.6813 131.856 68.7909 132.327 68.9105C132.897 69.0599 133.368 69.2193 133.758 69.3787C134.149 69.5381 134.459 69.7174 134.689 69.9167C134.919 70.106 135.09 70.3251 135.19 70.5642C135.29 70.8033 135.34 71.0823 135.34 71.4011C135.34 71.8095 135.26 72.1682 135.12 72.487C134.979 72.8058 134.759 73.0748 134.469 73.3039C134.189 73.5331 133.848 73.7024 133.438 73.822C133.037 73.9415 132.577 74.0013 132.076 74.0013V73.9913Z" fill="white"/>
<path d="M140.916 73.9913C140.205 73.9913 139.594 73.8817 139.064 73.6626C138.533 73.4434 138.083 73.1445 137.722 72.7759C137.362 72.4073 137.082 71.9789 136.901 71.4908C136.721 71.0026 136.621 70.4945 136.621 69.9565C136.621 69.4186 136.711 68.9105 136.901 68.4223C137.082 67.9341 137.362 67.5058 137.722 67.1371C138.083 66.7685 138.533 66.4697 139.064 66.2505C139.594 66.0313 140.215 65.9217 140.916 65.9217C141.616 65.9217 142.227 66.0313 142.767 66.2505C143.308 66.4697 143.748 66.7685 144.119 67.1371C144.489 67.5058 144.749 67.9341 144.94 68.4223C145.12 68.9105 145.22 69.4186 145.22 69.9565C145.22 70.4945 145.13 71.0026 144.94 71.4908C144.749 71.9789 144.479 72.4073 144.119 72.7759C143.758 73.1445 143.308 73.4434 142.767 73.6626C142.227 73.8817 141.616 73.9913 140.916 73.9913ZM139.524 69.9466C139.524 70.4746 139.654 70.883 139.914 71.1819C140.175 71.4808 140.505 71.6302 140.916 71.6302C141.326 71.6302 141.656 71.4808 141.917 71.1819C142.177 70.883 142.307 70.4746 142.307 69.9466C142.307 69.4186 142.177 69.0101 141.917 68.7112C141.656 68.4123 141.326 68.2629 140.916 68.2629C140.505 68.2629 140.175 68.4123 139.914 68.7112C139.654 69.0101 139.524 69.4186 139.524 69.9466Z" fill="white"/>
<path d="M159.585 73.8419H156.752V69.4484C156.752 69.0599 156.672 68.781 156.522 68.6116C156.371 68.4422 156.181 68.3526 155.961 68.3526C155.741 68.3526 155.491 68.4522 155.24 68.6614C154.99 68.8706 154.8 69.1396 154.68 69.4584V73.8319H151.847V69.4385C151.847 69.0499 151.767 68.771 151.617 68.6016C151.466 68.4323 151.276 68.3426 151.056 68.3426C150.826 68.3426 150.585 68.4422 150.335 68.6514C150.085 68.8607 149.895 69.1296 149.775 69.4484V73.822H146.942V66.0213H149.484V67.177C149.765 66.7486 150.145 66.4298 150.636 66.2106C151.126 65.9915 151.697 65.8819 152.367 65.8819C152.688 65.8819 152.968 65.9217 153.198 65.9915C153.438 66.0612 153.639 66.1708 153.819 66.2903C153.989 66.4198 154.129 66.5593 154.239 66.7187C154.339 66.8781 154.429 67.0475 154.49 67.2268C154.77 66.7984 155.15 66.4697 155.631 66.2306C156.111 65.9915 156.662 65.8719 157.272 65.8719C157.793 65.8719 158.203 65.9715 158.504 66.1608C158.804 66.3501 159.034 66.5892 159.194 66.8781C159.355 67.167 159.455 67.4759 159.505 67.7947C159.555 68.1234 159.575 68.4123 159.575 68.6813V73.812L159.585 73.8419Z" fill="white"/>
<path d="M164.009 73.9913C163.619 73.9913 163.259 73.9316 162.918 73.802C162.578 73.6725 162.288 73.4932 162.047 73.274C161.807 73.0549 161.617 72.7859 161.477 72.477C161.337 72.1682 161.267 71.8394 161.267 71.4808C161.267 71.0823 161.347 70.7236 161.517 70.3949C161.687 70.0661 161.917 69.7872 162.218 69.5481C162.518 69.309 162.868 69.1296 163.279 69.0001C163.689 68.8706 164.15 68.8108 164.64 68.8108C165.271 68.8108 165.801 68.9105 166.222 69.1097V68.8706C166.222 68.502 166.112 68.233 165.901 68.0537C165.691 67.8744 165.341 67.7847 164.87 67.7847C164.42 67.7847 164.009 67.8544 163.629 68.0039C163.249 68.1434 162.858 68.3526 162.438 68.6315L161.617 66.8781C162.648 66.2206 163.829 65.8819 165.151 65.8819C166.402 65.8819 167.363 66.1608 168.044 66.7088C168.724 67.2567 169.055 68.0935 169.055 69.1994V70.7137C169.055 70.9827 169.095 71.162 169.175 71.2716C169.255 71.3712 169.395 71.4409 169.595 71.4609V73.8319C169.365 73.8817 169.155 73.9216 168.944 73.9415C168.744 73.9614 168.564 73.9814 168.404 73.9814C167.893 73.9814 167.513 73.8917 167.253 73.7024C166.992 73.5231 166.822 73.2541 166.742 72.8955L166.682 72.6165C166.332 73.0648 165.931 73.4035 165.471 73.6327C165.01 73.8618 164.53 73.9814 164.009 73.9814V73.9913ZM164.85 71.9789C165.02 71.9789 165.191 71.949 165.371 71.8992C165.551 71.8494 165.711 71.7697 165.851 71.68C165.961 71.6003 166.051 71.5107 166.122 71.421C166.192 71.3314 166.222 71.2317 166.222 71.1321V70.5543C166.051 70.4945 165.871 70.4447 165.671 70.4048C165.471 70.365 165.291 70.3451 165.131 70.3451C164.78 70.3451 164.5 70.4248 164.27 70.5941C164.039 70.7635 163.929 70.9727 163.929 71.2317C163.929 71.4509 164.019 71.6302 164.19 71.7697C164.36 71.9092 164.58 71.9789 164.85 71.9789Z" fill="white"/>
<path d="M184 73.8419H181.167V69.4484C181.167 69.0599 181.087 68.781 180.937 68.6116C180.787 68.4422 180.596 68.3526 180.376 68.3526C180.156 68.3526 179.906 68.4522 179.656 68.6614C179.405 68.8706 179.215 69.1396 179.095 69.4584V73.8319H176.262V69.4385C176.262 69.0499 176.182 68.771 176.032 68.6016C175.882 68.4323 175.691 68.3426 175.471 68.3426C175.241 68.3426 175.001 68.4422 174.75 68.6514C174.5 68.8607 174.31 69.1296 174.19 69.4484V73.822H171.357V66.0213H173.9V67.177C174.18 66.7486 174.56 66.4298 175.051 66.2106C175.541 65.9915 176.112 65.8819 176.783 65.8819C177.103 65.8819 177.383 65.9217 177.613 65.9915C177.854 66.0612 178.054 66.1708 178.234 66.2903C178.404 66.4198 178.544 66.5593 178.654 66.7187C178.755 66.8781 178.845 67.0475 178.905 67.2268C179.185 66.7984 179.565 66.4697 180.046 66.2306C180.526 65.9915 181.077 65.8719 181.688 65.8719C182.208 65.8719 182.619 65.9715 182.919 66.1608C183.219 66.3501 183.449 66.5892 183.61 66.8781C183.77 67.167 183.87 67.4759 183.92 67.7947C183.97 68.1234 183.99 68.4123 183.99 68.6813V73.812L184 73.8419Z" fill="white"/>
</g>
<defs>
<clipPath id="clip0_8_41">
<rect width="184" height="77" fill="white"/>
</clipPath>
</defs>
</svg>
