<svg width="70" height="80" viewBox="0 0 70 80" fill="none" xmlns="http://www.w3.org/2000/svg">
<g clip-path="url(#clip0_10_104)">
<path d="M59.38 44.34H10.62C9.24 44.34 8.12 45.44 8.12 46.79V56.6C8.12 57.95 9.24 59.05 10.62 59.05H59.37C60.75 59.05 61.87 57.95 61.87 56.6V46.79C61.87 45.44 60.75 44.34 59.37 44.34H59.38Z" fill="white"/>
<path d="M59.38 0H10.62C9.24 0 8.12 1.1 8.12 2.45V12.26C8.12 13.61 9.24 14.71 10.62 14.71H59.37C60.75 14.71 61.87 13.61 61.87 12.26V2.45C61.87 1.1 60.75 0 59.37 0H59.38Z" fill="white"/>
<path d="M67.5 23.39H2.5C1.12 23.39 0 24.49 0 25.84V35.65C0 37 1.12 38.1 2.5 38.1H67.5C68.88 38.1 70 37 70 35.65V25.84C70 24.49 68.88 23.39 67.5 23.39Z" fill="white"/>
<path d="M51.25 65.29H18.75C17.37 65.29 16.25 66.39 16.25 67.74V77.55C16.25 78.9 17.37 80 18.75 80H51.25C52.63 80 53.75 78.9 53.75 77.55V67.74C53.75 66.39 52.63 65.29 51.25 65.29Z" fill="white"/>
</g>
<defs>
<clipPath id="clip0_10_104">
<rect width="70" height="80" fill="white"/>
</clipPath>
</defs>
</svg>
